<?xml version="1.0" encoding="UTF-8"?><svg xmlns="http://www.w3.org/2000/svg" xmlns:xlink="http://www.w3.org/1999/xlink" viewBox="0 0 576 373"><defs><style>.cls-1{fill:url(#linear-gradient);}.cls-2{fill:#f4a1a6;}.cls-3{fill:#f7b7a6;}.cls-4{fill:#00d2ca;}.cls-5{fill:#ed6581;}.cls-6{fill:#eaf1f8;}.cls-7{fill:#ebc000;}.cls-8{fill:#ffe460;}.cls-9{fill:#fff;}.cls-10{fill:#efcc31;}.cls-11{fill:#ffb8e9;}.cls-12{fill:#e5e5e5;}.cls-13{fill:#f0d86c;}.cls-14{fill:#ff7a78;}.cls-15{fill:#ff705f;}.cls-16{fill:#fde186;}.cls-17{fill:#ff5a4f;}.cls-18{fill:#6ad5f3;}.cls-19{fill:#8764c4;}.cls-20{fill:#b595f7;}.cls-21{fill:#b6bafa;}.cls-22{fill:#8ebbe3;}.cls-23{fill:#a9abb9;}.cls-24{fill:#a986f3;}.cls-25{fill:#b2b2b2;}.cls-26{fill:#cfced2;}.cls-27{fill:#dceeef;}.cls-28{fill:#e2e0e4;}.cls-29{fill:#c7d8fa;}.cls-30{fill:#40e1d9;}.cls-31{fill:#415391;}.cls-32{fill:#35beb7;}.cls-33{fill:#3f487b;}.cls-34{fill:#3dbdeb;}.cls-35{fill:#28a6dd;}.cls-36{fill:#38cec9;}.cls-37{fill:#5e6587;}.cls-38{fill:#1d75ba;opacity:.2;}.cls-38,.cls-39{mix-blend-mode:multiply;}.cls-39{fill:#01bdec;opacity:.4;}.cls-40{fill:url(#linear-gradient-2);}.cls-41{fill:url(#Degradado_sin_nombre_2);}.cls-42{isolation:isolate;}</style><linearGradient id="Degradado_sin_nombre_2" x1="153.14" y1="237.85" x2="392.08" y2="237.85" gradientUnits="userSpaceOnUse"><stop offset="0" stop-color="#40e1d9"/><stop offset="1" stop-color="#acdffd" stop-opacity="0"/></linearGradient><linearGradient id="linear-gradient" x1="3676.93" y1="165.46" x2="3708.69" y2="165.46" gradientTransform="translate(3873.49) rotate(-180) scale(1 -1)" gradientUnits="userSpaceOnUse"><stop offset="0" stop-color="#70a1d6"/><stop offset=".33" stop-color="#6f9cd2"/><stop offset=".7" stop-color="#6f8ec7"/><stop offset="1" stop-color="#6f7eba"/></linearGradient><linearGradient id="linear-gradient-2" x1="3687.24" y1="145.92" x2="3687.24" y2="170.52" xlink:href="#linear-gradient"/></defs><g class="cls-42"><g id="Capa_1"><g><g><g><path class="cls-21" d="M330.89,135.01c.06-.07,.13-.13,.22-.18l17.32-10.67c.59-.36,1.33-.38,1.94-.05l41.5,22.45,.99-.03,.07,2.54c0,.28-.12,.56-.39,.72l-17.29,10.65c-.8,.49-1.8,.52-2.63,.07l-41.43-22.41c-.34-.19-.52-.52-.53-.86h0s-.07-2.56-.07-2.56l.3,.33Z"/><g><path class="cls-29" d="M331.13,135.55l41.43,22.41c.13,.07,.27,.13,.42,.18l.07,2.55c-.14-.05-.28-.11-.42-.18l-41.43-22.41c-.34-.19-.52-.52-.53-.86h0s-.07-2.55-.07-2.55c0,.34,.19,.68,.53,.87Z"/><polygon class="cls-23" points="330.6 134.68 330.6 134.69 330.6 134.68 330.6 134.68"/></g><path class="cls-9" d="M331.08,133.79l17.32-10.67c.59-.36,1.33-.38,1.94-.05l42.09,22.77c.55,.3,.57,1.08,.04,1.41l-17.29,10.65c-.8,.49-1.8,.52-2.63,.07l-41.43-22.41c-.69-.37-.72-1.35-.05-1.77Z"/><path class="cls-29" d="M375.18,157.89l.27-.17,.07,2.55-.27,.17c-.3,.19-.63,.31-.97,.36l-.07-2.55c.34-.05,.67-.17,.97-.36Z"/></g><g><g><g><polygon class="cls-32" points="337.42 115.33 338 135.55 349.47 128.47 348.89 108.27 337.42 115.33"/><polygon class="cls-9" points="348.89 108.27 337.42 115.33 334.49 113.74 345.96 106.69 348.89 108.27"/><polygon class="cls-30" points="337.42 115.33 338 135.55 335.07 133.97 334.49 113.74 337.42 115.33"/></g><polygon class="cls-36" points="345.96 106.69 346.35 106.9 335.26 113.72 337.4 114.88 348.49 108.06 348.89 108.27 337.42 115.33 334.49 113.74 345.96 106.69"/><polygon class="cls-27" points="336.91 117.44 337.28 130.42 335.41 129.4 335.03 116.43 336.91 117.44"/></g><g><g><polygon class="cls-13" points="341.43 117.5 342.01 137.73 353.48 130.65 352.9 110.45 341.43 117.5"/><polygon class="cls-9" points="352.9 110.45 341.43 117.5 338.5 115.92 349.98 108.87 352.9 110.45"/><polygon class="cls-10" points="341.43 117.5 342.01 137.73 339.08 136.14 338.5 115.92 341.43 117.5"/></g><polygon class="cls-8" points="349.98 108.87 350.37 109.08 339.27 115.9 341.42 117.06 352.51 110.23 352.9 110.45 341.43 117.5 338.5 115.92 349.98 108.87"/><polygon class="cls-27" points="340.93 119.62 341.3 132.59 339.42 131.58 339.05 118.6 340.93 119.62"/></g><g><g><polygon class="cls-19" points="345.61 119.75 346.19 139.97 357.67 132.89 357.09 112.7 345.61 119.75"/><polygon class="cls-9" points="357.09 112.7 345.61 119.75 342.69 118.17 354.16 111.11 357.09 112.7"/><polygon class="cls-24" points="345.61 119.75 346.19 139.97 343.27 138.39 342.69 118.17 345.61 119.75"/></g><polygon class="cls-20" points="354.16 111.11 354.55 111.32 343.46 118.14 345.6 119.3 356.69 112.48 357.09 112.7 345.61 119.75 342.69 118.17 354.16 111.11"/><polygon class="cls-27" points="345.11 121.86 345.48 134.84 343.6 133.82 343.23 120.85 345.11 121.86"/></g><g><g><polygon class="cls-15" points="353.65 124.1 354.22 144.32 365.7 137.24 365.12 117.05 353.65 124.1"/><polygon class="cls-9" points="365.12 117.05 353.65 124.1 350.72 122.51 362.19 115.46 365.12 117.05"/><polygon class="cls-17" points="353.65 124.1 354.22 144.32 351.3 142.74 350.72 122.51 353.65 124.1"/></g><polygon class="cls-14" points="362.19 115.46 362.58 115.67 351.49 122.49 353.63 123.65 364.72 116.83 365.12 117.05 353.65 124.1 350.72 122.51 362.19 115.46"/><polygon class="cls-27" points="353.14 126.21 353.51 139.19 351.63 138.17 351.26 125.2 353.14 126.21"/></g></g><g><g><g><polygon class="cls-32" points="357.38 126.21 357.96 146.43 369.43 139.35 368.85 119.15 357.38 126.21"/><polygon class="cls-9" points="368.85 119.15 357.38 126.21 354.45 124.62 365.93 117.57 368.85 119.15"/><polygon class="cls-30" points="357.38 126.21 357.96 146.43 355.03 144.85 354.45 124.62 357.38 126.21"/></g><polygon class="cls-36" points="365.93 117.57 366.32 117.78 355.22 124.6 357.37 125.76 368.46 118.94 368.85 119.15 357.38 126.21 354.45 124.62 365.93 117.57"/><polygon class="cls-27" points="356.88 128.32 357.25 141.3 355.37 140.28 355 127.3 356.88 128.32"/></g><g><g><polygon class="cls-13" points="361.4 128.38 361.98 148.61 373.45 141.52 372.87 121.33 361.4 128.38"/><polygon class="cls-9" points="372.87 121.33 361.4 128.38 358.47 126.8 369.94 119.74 372.87 121.33"/><polygon class="cls-10" points="361.4 128.38 361.98 148.61 359.05 147.02 358.47 126.8 361.4 128.38"/></g><polygon class="cls-8" points="369.94 119.74 370.33 119.96 359.24 126.78 361.38 127.94 372.47 121.11 372.87 121.33 361.4 128.38 358.47 126.8 369.94 119.74"/><polygon class="cls-27" points="360.89 130.49 361.26 143.47 359.39 142.45 359.01 129.48 360.89 130.49"/></g><g><g><polygon class="cls-19" points="365.58 130.63 366.16 150.85 377.63 143.77 377.05 123.57 365.58 130.63"/><polygon class="cls-9" points="377.05 123.57 365.58 130.63 362.65 129.04 374.12 121.99 377.05 123.57"/><polygon class="cls-24" points="365.58 130.63 366.16 150.85 363.23 149.27 362.65 129.04 365.58 130.63"/></g><polygon class="cls-20" points="374.12 121.99 374.52 122.2 363.42 129.02 365.57 130.18 376.65 123.36 377.05 123.57 365.58 130.63 362.65 129.04 374.12 121.99"/><polygon class="cls-27" points="365.08 132.74 365.45 145.72 363.57 144.7 363.2 131.72 365.08 132.74"/></g><g><g><polygon class="cls-35" points="369.52 132.76 370.1 152.99 381.57 145.91 380.99 125.71 369.52 132.76"/><polygon class="cls-9" points="380.99 125.71 369.52 132.76 366.59 131.18 378.06 124.13 380.99 125.71"/><polygon class="cls-34" points="369.52 132.76 370.1 152.99 367.17 151.41 366.59 131.18 369.52 132.76"/></g><polygon class="cls-18" points="378.06 124.13 378.46 124.34 367.36 131.16 369.51 132.32 380.59 125.5 380.99 125.71 369.52 132.76 366.59 131.18 378.06 124.13"/><polygon class="cls-27" points="369.02 134.88 369.39 147.85 367.51 146.84 367.14 133.86 369.02 134.88"/></g><g><g><polygon class="cls-15" points="373.61 134.98 374.19 155.2 385.66 148.12 385.08 127.92 373.61 134.98"/><polygon class="cls-9" points="385.08 127.92 373.61 134.98 370.68 133.39 382.15 126.34 385.08 127.92"/><polygon class="cls-17" points="373.61 134.98 374.19 155.2 371.26 153.62 370.68 133.39 373.61 134.98"/></g><polygon class="cls-14" points="382.15 126.34 382.55 126.55 371.45 133.37 373.6 134.53 384.68 127.71 385.08 127.92 373.61 134.98 370.68 133.39 382.15 126.34"/><polygon class="cls-27" points="373.11 137.09 373.48 150.07 371.6 149.05 371.23 136.07 373.11 137.09"/></g></g></g><g><g><path class="cls-21" d="M330.86,114.83c.06-.07,.13-.13,.22-.18l17.32-10.67c.59-.36,1.33-.38,1.94-.05l41.5,22.45,.99-.03,.07,2.54c0,.28-.12,.56-.39,.72l-17.29,10.65c-.8,.49-1.8,.52-2.63,.07l-41.43-22.41c-.34-.19-.52-.52-.53-.86h0s-.07-2.56-.07-2.56l.3,.33Z"/><g><path class="cls-29" d="M331.1,115.37l41.43,22.41c.13,.07,.27,.13,.42,.18l.07,2.55c-.14-.05-.28-.11-.42-.18l-41.43-22.41c-.34-.19-.52-.52-.53-.86h0s-.07-2.55-.07-2.55c0,.34,.19,.68,.53,.87Z"/><polygon class="cls-23" points="330.56 114.5 330.56 114.51 330.56 114.5 330.56 114.5"/></g><path class="cls-9" d="M331.05,113.61l17.32-10.67c.59-.36,1.33-.38,1.94-.05l42.09,22.77c.55,.3,.57,1.08,.04,1.41l-17.29,10.65c-.8,.49-1.8,.52-2.63,.07l-41.43-22.41c-.69-.37-.72-1.35-.05-1.77Z"/><path class="cls-29" d="M375.15,137.71l.27-.17,.07,2.55-.27,.17c-.3,.19-.63,.31-.97,.36l-.07-2.55c.34-.05,.67-.17,.97-.36Z"/></g><g><g><g><polygon class="cls-32" points="337.38 95.15 337.96 115.37 349.43 108.29 348.86 88.09 337.38 95.15"/><polygon class="cls-9" points="348.86 88.09 337.38 95.15 334.46 93.56 345.93 86.51 348.86 88.09"/><polygon class="cls-30" points="337.38 95.15 337.96 115.37 335.03 113.79 334.46 93.56 337.38 95.15"/></g><polygon class="cls-36" points="345.93 86.51 346.32 86.72 335.23 93.54 337.37 94.7 348.46 87.88 348.86 88.09 337.38 95.15 334.46 93.56 345.93 86.51"/><polygon class="cls-27" points="336.88 97.26 337.25 110.24 335.37 109.22 335 96.25 336.88 97.26"/></g><g><g><polygon class="cls-13" points="341.4 97.32 341.98 117.55 353.45 110.47 352.87 90.27 341.4 97.32"/><polygon class="cls-9" points="352.87 90.27 341.4 97.32 338.47 95.74 349.94 88.69 352.87 90.27"/><polygon class="cls-10" points="341.4 97.32 341.98 117.55 339.05 115.96 338.47 95.74 341.4 97.32"/></g><polygon class="cls-8" points="349.94 88.69 350.33 88.9 339.24 95.72 341.39 96.88 352.47 90.05 352.87 90.27 341.4 97.32 338.47 95.74 349.94 88.69"/><polygon class="cls-27" points="340.89 99.44 341.27 112.41 339.39 111.4 339.02 98.42 340.89 99.44"/></g><g><g><polygon class="cls-19" points="345.58 99.57 346.16 119.79 357.63 112.71 357.05 92.52 345.58 99.57"/><polygon class="cls-9" points="357.05 92.52 345.58 99.57 342.65 97.98 354.13 90.93 357.05 92.52"/><polygon class="cls-24" points="345.58 99.57 346.16 119.79 343.23 118.21 342.65 97.98 345.58 99.57"/></g><polygon class="cls-20" points="354.13 90.93 354.52 91.14 343.42 97.96 345.57 99.12 356.66 92.3 357.05 92.52 345.58 99.57 342.65 97.98 354.13 90.93"/><polygon class="cls-27" points="345.08 101.68 345.45 114.66 343.57 113.64 343.2 100.67 345.08 101.68"/></g><g><g><polygon class="cls-35" points="349.52 101.71 350.1 121.93 361.57 114.85 360.99 94.65 349.52 101.71"/><polygon class="cls-9" points="360.99 94.65 349.52 101.71 346.59 100.12 358.07 93.07 360.99 94.65"/><polygon class="cls-34" points="349.52 101.71 350.1 121.93 347.17 120.35 346.59 100.12 349.52 101.71"/></g><polygon class="cls-18" points="358.07 93.07 358.46 93.28 347.36 100.1 349.51 101.26 360.6 94.44 360.99 94.65 349.52 101.71 346.59 100.12 358.07 93.07"/><polygon class="cls-27" points="349.02 103.82 349.39 116.8 347.51 115.78 347.14 102.8 349.02 103.82"/></g><g><g><polygon class="cls-15" points="353.61 103.92 354.19 124.14 365.66 117.06 365.08 96.86 353.61 103.92"/><polygon class="cls-9" points="365.08 96.86 353.61 103.92 350.68 102.33 362.16 95.28 365.08 96.86"/><polygon class="cls-17" points="353.61 103.92 354.19 124.14 351.26 122.56 350.68 102.33 353.61 103.92"/></g><polygon class="cls-14" points="362.16 95.28 362.55 95.49 351.45 102.31 353.6 103.47 364.69 96.65 365.08 96.86 353.61 103.92 350.68 102.33 362.16 95.28"/><polygon class="cls-27" points="353.11 106.03 353.48 119.01 351.6 117.99 351.23 105.02 353.11 106.03"/></g></g><g><g><g><polygon class="cls-32" points="354.42 109.23 355 129.46 366.47 122.38 365.89 102.18 354.42 109.23"/><polygon class="cls-9" points="365.89 102.18 354.42 109.23 351.49 107.65 362.97 100.6 365.89 102.18"/><polygon class="cls-30" points="354.42 109.23 355 129.46 352.07 127.87 351.49 107.65 354.42 109.23"/></g><polygon class="cls-36" points="362.97 100.6 363.36 100.81 352.26 107.63 354.41 108.79 365.5 101.96 365.89 102.18 354.42 109.23 351.49 107.65 362.97 100.6"/><polygon class="cls-27" points="353.92 111.35 354.29 124.32 352.41 123.31 352.04 110.33 353.92 111.35"/></g><g><g><polygon class="cls-13" points="361.36 108.2 361.94 128.42 373.42 121.34 372.84 101.15 361.36 108.2"/><polygon class="cls-9" points="372.84 101.15 361.36 108.2 358.44 106.62 369.91 99.56 372.84 101.15"/><polygon class="cls-10" points="361.36 108.2 361.94 128.42 359.01 126.84 358.44 106.62 361.36 108.2"/></g><polygon class="cls-8" points="369.91 99.56 370.3 99.78 359.21 106.59 361.35 107.76 372.44 100.93 372.84 101.15 361.36 108.2 358.44 106.62 369.91 99.56"/><polygon class="cls-27" points="360.86 110.31 361.23 123.29 359.35 122.27 358.98 109.3 360.86 110.31"/></g><g><g><polygon class="cls-35" points="369.49 112.58 370.07 132.81 381.54 125.73 380.96 105.53 369.49 112.58"/><polygon class="cls-9" points="380.96 105.53 369.49 112.58 366.56 111 378.03 103.95 380.96 105.53"/><polygon class="cls-34" points="369.49 112.58 370.07 132.81 367.14 131.22 366.56 111 369.49 112.58"/></g><polygon class="cls-18" points="378.03 103.95 378.42 104.16 367.33 110.98 369.47 112.14 380.56 105.32 380.96 105.53 369.49 112.58 366.56 111 378.03 103.95"/><polygon class="cls-27" points="368.98 114.7 369.35 127.67 367.48 126.66 367.1 113.68 368.98 114.7"/></g><g><g><polygon class="cls-15" points="373.58 114.8 374.16 135.02 385.63 127.94 385.05 107.74 373.58 114.8"/><polygon class="cls-9" points="385.05 107.74 373.58 114.8 370.65 113.21 382.12 106.16 385.05 107.74"/><polygon class="cls-17" points="373.58 114.8 374.16 135.02 371.23 133.44 370.65 113.21 373.58 114.8"/></g><polygon class="cls-14" points="382.12 106.16 382.51 106.37 371.42 113.19 373.56 114.35 384.65 107.53 385.05 107.74 373.58 114.8 370.65 113.21 382.12 106.16"/><polygon class="cls-27" points="373.07 116.91 373.44 129.89 371.57 128.87 371.19 115.89 373.07 116.91"/></g></g></g><g><g><path class="cls-25" d="M128.26,173.71c.11-.11,.23-.21,.37-.29l29.7-17.14c1.01-.58,2.26-.58,3.27,0l31.51,18.18h1.67v13.54c0,.47-.22,.93-.69,1.2l-29.64,17.11c-1.37,.79-3.06,.79-4.43,0l-31.39-18.11c-.57-.33-.86-.9-.86-1.48h0v-13.58l.49,.57Z"/><g><path class="cls-26" d="M128.63,174.64l31.39,18.11c.22,.13,.46,.24,.69,.32v13.55c-.24-.09-.47-.19-.69-.32l-31.39-18.11c-.57-.33-.86-.9-.86-1.48h0v-13.56c0,.58,.29,1.16,.86,1.49Z"/><path class="cls-23" d="M127.77,173.14s0,.01,0,.02v-.02h0Z"/></g><path class="cls-9" d="M128.63,171.66l29.7-17.14c1.01-.58,2.26-.58,3.27,0l32.49,18.75c.91,.53,.91,1.85,0,2.38l-29.64,17.11c-1.37,.79-3.06,.79-4.43,0l-31.39-18.11c-1.15-.66-1.14-2.32,0-2.98Z"/><path class="cls-12" d="M164.45,192.76l.46-.27v13.55l-.46,.27c-.52,.3-1.08,.48-1.65,.56v-13.55c.57-.07,1.14-.26,1.65-.56Z"/><path class="cls-38" d="M128.63,186.87l31.39,18.11c1.37,.79,3.06,.79,4.43,0l29.64-17.11c.46-.27,.69-.73,.69-1.2v.59c0,.47-.22,.93-.69,1.2l-29.64,17.11c-1.37,.79-3.06,.79-4.43,0l-31.39-18.11c-.57-.33-.86-.9-.86-1.48h0v-.59h0c0,.58,.29,1.15,.86,1.48Z"/><path class="cls-38" d="M128.63,175.46l31.39,18.11c1.37,.79,3.06,.79,4.43,0l29.64-17.11c.46-.27,.69-.73,.69-1.2v.59c0,.47-.22,.93-.69,1.2l-29.64,17.11c-1.37,.79-3.06,.79-4.43,0l-31.39-18.11c-.57-.33-.86-.9-.86-1.48h0v-.59h0c0,.58,.29,1.15,.86,1.48Z"/></g><g><path class="cls-25" d="M128.26,158.02c.11-.11,.23-.21,.37-.29l29.7-17.14c1.01-.58,2.26-.58,3.27,0l31.51,18.18h1.67v13.54c0,.47-.22,.93-.69,1.2l-29.64,17.11c-1.37,.79-3.06,.79-4.43,0l-31.39-18.11c-.57-.33-.86-.9-.86-1.48h0v-13.58l.49,.57Z"/><g><path class="cls-26" d="M128.63,158.96l31.39,18.11c.22,.13,.46,.24,.69,.32v13.55c-.24-.09-.47-.19-.69-.32l-31.39-18.11c-.57-.33-.86-.9-.86-1.48h0v-13.56c0,.58,.29,1.16,.86,1.49Z"/><path class="cls-23" d="M127.77,157.45s0,.01,0,.02v-.02h0Z"/></g><path class="cls-9" d="M128.63,155.98l29.7-17.14c1.01-.58,2.26-.58,3.27,0l32.49,18.75c.91,.53,.91,1.85,0,2.38l-29.64,17.11c-1.37,.79-3.06,.79-4.43,0l-31.39-18.11c-1.15-.66-1.14-2.32,0-2.98Z"/><path class="cls-12" d="M164.45,177.07l.46-.27v13.55l-.46,.27c-.52,.3-1.08,.48-1.65,.56v-13.55c.57-.07,1.14-.26,1.65-.56Z"/><path class="cls-38" d="M128.63,171.18l31.39,18.11c1.37,.79,3.06,.79,4.43,0l29.64-17.11c.46-.27,.69-.73,.69-1.2v.59c0,.47-.22,.93-.69,1.2l-29.64,17.11c-1.37,.79-3.06,.79-4.43,0l-31.39-18.11c-.57-.33-.86-.9-.86-1.48h0v-.59h0c0,.58,.29,1.15,.86,1.48Z"/><path class="cls-38" d="M128.63,159.77l31.39,18.11c1.37,.79,3.06,.79,4.43,0l29.64-17.11c.46-.27,.69-.73,.69-1.2v.59c0,.47-.22,.93-.69,1.2l-29.64,17.11c-1.37,.79-3.06,.79-4.43,0l-31.39-18.11c-.57-.33-.86-.9-.86-1.48h0v-.59h0c0,.58,.29,1.15,.86,1.48Z"/></g></g><path class="cls-41" d="M390.16,204.34h0c-.44-.64-1.03-1.21-1.77-1.64l-62.65-36.24c-3.45-1.99-7.7-1.99-11.15,0l-158.2,91.49c-.98,.57-1.65,1.4-2.02,2.32h0s-1.73,3.06-1.08,6.94c0,0,0,.02,0,.02,.05,.26,.1,.53,.17,.8,0,.03,.02,.06,.02,.1,.07,.26,.15,.52,.24,.78,.01,.04,.03,.08,.04,.12,.1,.26,.2,.53,.33,.8,.01,.03,.03,.06,.04,.09,.13,.28,.28,.56,.44,.85,.02,.04,.04,.08,.06,.12,0,.01,.01,.03,.02,.04h0c.39,.67,.96,1.26,1.71,1.7l62.91,36.4c3.98,2.29,8.87,2.29,12.85,0l156.23-90.35c1.04-.6,1.77-1.46,2.22-2.43h.01s3.6-6.03-.45-11.91Z"/><g><g><path class="cls-26" d="M161.29,252.21s-.04-.08-.06-.12c-3.12-5.37-.22-10.5-.22-10.5l5.42,1.92,154.81-89.53c3.45-1.99,7.7-1.99,11.15,0l60.65,35.09,3.77-3.41c4.05,5.88,.45,11.9,.45,11.9h-.01c-.45,.97-1.18,1.83-2.22,2.43l-156.23,90.35c-3.98,2.29-8.87,2.29-12.85,0l-62.91-36.4c-.75-.43-1.32-1.03-1.71-1.7h0s-.02-.03-.02-.04Z"/><path class="cls-9" d="M163.03,239.26l158.2-91.49c3.45-1.99,7.7-1.99,11.15,0l62.65,36.24c3.64,2.1,3.64,7.36,0,9.46l-156.23,90.35c-3.98,2.29-8.87,2.29-12.85,0l-62.91-36.4c-3.15-1.82-3.15-6.36,0-8.17Z"/></g><polygon class="cls-4" points="167.85 238.67 240.1 280.37 390.66 193.05 318.61 151.47 167.85 238.67"/><path class="cls-25" d="M161.23,249.42s.04,.08,.06,.12c0,.02,.01,.03,.02,.04h0c.39,.67,.96,1.26,1.71,1.7l62.91,36.4c3.98,2.29,8.87,2.29,12.85,0l156.23-90.35c1.04-.6,1.77-1.46,2.22-2.43h.01s1.07-1.81,1.38-4.41c.47,3.95-1.38,7.08-1.38,7.08h-.01c-.45,.97-1.18,1.83-2.22,2.43l-156.23,90.35c-3.98,2.29-8.87,2.29-12.85,0l-62.91-36.4c-.75-.43-1.32-1.03-1.71-1.7h0s-.02-.03-.02-.04c-.02-.04-.04-.08-.06-.12-1.41-2.43-1.59-4.8-1.36-6.68,.16,1.27,.56,2.63,1.36,4.01Z"/><g><path class="cls-21" d="M376.78,207.38l-.42-.24h0c-.13-.08-.3-.09-.45,0l-16.08,9.29c-.42,.25-.69,.7-.69,1.19v.55c0,.2,.1,.35,.25,.44h0s0,0,0,0l.42,.24,.04-.14-.08-.05s.09-.03,.13-.05l16.19-9.35c.29-.17,.47-.48,.47-.82v-.91s0,0,0,0l.21-.13Z"/><path class="cls-9" d="M376.34,207.38l-16.08,9.29c-.42,.25-.69,.7-.69,1.19v.55c0,.4,.43,.64,.77,.44l16.19-9.35c.29-.17,.47-.48,.47-.82v-.91c0-.34-.37-.56-.67-.38Z"/></g><g><path class="cls-33" d="M188.65,265.04h0l6.13,3.56c.61,.35,.99,1.01,.99,1.72v.9l-8.42-4.87v-.93c.07-1.05,1.3-.38,1.3-.38Z"/><path class="cls-9" d="M187.87,264.84c-.05,.09-.09,.19-.1,.35v.93l8,4.63v.47l-8.42-4.87v-.93c.03-.44,.26-.57,.52-.58Z"/><g><path class="cls-33" d="M201.52,272.54c-.44-.25-.79-.05-.79,.45,0,.5,.35,1.11,.79,1.36,.44,.25,.79,.05,.79-.45,0-.5-.35-1.11-.79-1.36Z"/><path class="cls-9" d="M201.13,272.45c-.04,.09-.07,.2-.07,.33,0,.5,.35,1.11,.79,1.36,.14,.08,.27,.1,.38,.09-.12,.25-.4,.31-.72,.13-.44-.25-.79-.86-.79-1.36,0-.34,.17-.52,.41-.54Z"/></g><g><path class="cls-33" d="M204.18,274.08c-.44-.25-.79-.05-.79,.45,0,.5,.35,1.11,.79,1.36,.44,.25,.79,.05,.79-.45,0-.5-.35-1.11-.79-1.36Z"/><path class="cls-9" d="M203.8,273.99c-.04,.09-.07,.2-.07,.33,0,.5,.35,1.11,.79,1.36,.14,.08,.27,.1,.38,.09-.12,.25-.4,.31-.72,.13-.44-.25-.79-.86-.79-1.36,0-.34,.17-.52,.41-.54Z"/></g><g><path class="cls-33" d="M206.85,275.63c-.44-.25-.79-.05-.79,.45,0,.5,.35,1.11,.79,1.36,.44,.25,.79,.05,.79-.45,0-.5-.35-1.11-.79-1.36Z"/><path class="cls-9" d="M206.47,275.54c-.04,.09-.07,.2-.07,.33,0,.5,.35,1.11,.79,1.36,.14,.08,.27,.1,.38,.09-.12,.25-.4,.31-.72,.13-.44-.25-.79-.86-.79-1.36,0-.34,.17-.52,.41-.54Z"/></g><g><path class="cls-33" d="M209.52,277.18c-.44-.25-.79-.05-.79,.45,0,.5,.35,1.11,.79,1.36,.44,.25,.79,.05,.79-.45,0-.5-.35-1.11-.79-1.36Z"/><path class="cls-9" d="M209.14,277.08c-.04,.09-.07,.2-.07,.33,0,.5,.35,1.11,.79,1.36,.14,.08,.27,.1,.38,.09-.12,.25-.4,.31-.72,.13-.44-.25-.79-.86-.79-1.36,0-.34,.17-.52,.41-.54Z"/></g><g><path class="cls-33" d="M212.19,278.72c-.44-.25-.79-.05-.79,.45,0,.5,.35,1.11,.79,1.36,.44,.25,.79,.05,.79-.45,0-.5-.35-1.11-.79-1.36Z"/><path class="cls-9" d="M211.8,278.63c-.04,.09-.07,.2-.07,.33,0,.5,.35,1.11,.79,1.36,.14,.08,.27,.1,.38,.09-.12,.25-.4,.31-.72,.13-.44-.25-.79-.86-.79-1.36,0-.34,.17-.52,.41-.54Z"/></g><g><path class="cls-33" d="M214.86,280.27c-.44-.25-.79-.05-.79,.45,0,.5,.35,1.11,.79,1.36,.44,.25,.79,.05,.79-.45,0-.5-.35-1.11-.79-1.36Z"/><path class="cls-9" d="M214.47,280.18c-.04,.09-.07,.2-.07,.33,0,.5,.35,1.11,.79,1.36,.14,.08,.27,.1,.38,.09-.12,.25-.4,.31-.72,.13-.44-.25-.79-.86-.79-1.36,0-.34,.17-.52,.41-.54Z"/></g><g><path class="cls-33" d="M217.52,281.81c-.44-.25-.79-.05-.79,.45,0,.5,.35,1.11,.79,1.36,.44,.25,.79,.05,.79-.45,0-.5-.35-1.11-.79-1.36Z"/><path class="cls-9" d="M217.14,281.72c-.04,.09-.07,.2-.07,.33,0,.5,.35,1.11,.79,1.36,.14,.08,.27,.1,.38,.09-.12,.25-.4,.31-.72,.13-.44-.25-.79-.86-.79-1.36,0-.34,.17-.52,.41-.54Z"/></g></g></g><g><g><g><polygon class="cls-20" points="243.22 268.52 243.22 270.15 277.67 250.26 277.67 248.63 243.22 268.52"/><polygon class="cls-19" points="243.22 268.52 277.67 248.63 228.44 220.22 193.99 240.11 243.22 268.52"/><polygon class="cls-28" points="193.99 240.11 193.99 241.74 243.22 270.15 243.22 268.52 193.99 240.11"/></g><g><polygon class="cls-20" points="243.22 258.57 243.22 260.21 277.67 240.32 277.67 238.68 243.22 258.57"/><polygon class="cls-19" points="243.22 258.57 277.67 238.68 228.44 210.27 193.99 230.16 243.22 258.57"/><polygon class="cls-28" points="193.99 230.16 193.99 231.79 243.22 260.21 243.22 258.57 193.99 230.16"/></g><polygon class="cls-20" points="243.22 258.57 193.99 230.16 193.99 241.74 243.22 270.15 243.22 258.57"/><path class="cls-20" d="M243.22,258.57v11.43s-3.03-4.17,0-11.43Z"/><path class="cls-20" d="M193.99,230.16v11.57s-3.03-4.23,0-11.57Z"/><path class="cls-12" d="M243.22,260.21l33.58-19.39s-.82,2.84,0,8.31l-33.58,19.39v-8.31Z"/></g><path class="cls-6" d="M204.35,229.47c-.4,.23-.4,.6,0,.84l9.57,5.56c.4,.23,1.04,.23,1.44,0l23.39-13.49c.4-.23,.4-.6,0-.84l-9.57-5.56c-.4-.23-1.04-.23-1.44,0l-23.39,13.49Z"/></g><g><path class="cls-30" d="M364.55,246.4c.35-.28,.44-.82,.43-1.25-.03-1.04-.6-2.04-1.33-2.76-.33-.32-.74-.58-1.2-.66-.25-.05-.5-.05-.73,.08l52.74-30.48s.05-.03,.07-.04c0,0,.02,0,.02-.01,.27-.12,.58-.09,.85,0,.27,.09,.54,.24,.76,.42,0,0,.01,.01,.02,.02,.01,.01,.03,.02,.04,.03,.82,.68,1.41,1.75,1.49,2.82,.04,.51-.06,1.15-.55,1.43l-52.74,30.48s.04-.02,.06-.04c0,0,.01,0,.02-.01,.01,0,.03-.02,.04-.03Z"/><path class="cls-16" d="M365,245.25c0-1.22-.85-2.7-1.91-3.31-.67-.39-1.27-.33-1.61,.08h0s-5.44,5.53-5.44,5.53c-.39,.39-.01,1.05,.52,.91l7.57-1.88s.06-.01,.09-.02h.04s0-.01,0-.01c.44-.15,.73-.6,.73-1.3Z"/><path class="cls-5" d="M417.72,214.57c-.08-1.07-.67-2.14-1.49-2.82-.01-.01-.03-.02-.04-.03,0,0-.01-.01-.02-.02-.22-.18-.49-.33-.76-.42-.27-.09-.59-.11-.85,0,0,0-.02,0-.02,.01-.02,.01-.05,.02-.07,.04l-2.06,1.19c.12,.01,.24,.04,.36,.08,.3,.1,.59,.27,.84,.46,0,0,.01,.01,.02,.02,.01,.01,.03,.02,.04,.03,.9,.75,1.55,1.93,1.64,3.1,.02,.3,0,.63-.1,.92l1.98-1.14c.49-.28,.58-.92,.55-1.43Z"/><path class="cls-29" d="M415.7,215.73c-.08-1.07-.67-2.14-1.49-2.82-.01-.01-.03-.02-.04-.03,0,0-.01-.01-.02-.02-.22-.18-.49-.33-.76-.42-.27-.09-.59-.11-.85,0,0,0-.02,0-.02,.01-.02,.01-.05,.02-.07,.04l-2.06,1.19c.12,.01,.24,.04,.36,.08,.3,.1,.59,.27,.84,.46,0,0,.01,.01,.02,.02,.01,.01,.03,.02,.04,.03,.9,.75,1.55,1.93,1.64,3.1,.02,.3,0,.63-.1,.92l1.98-1.14c.49-.28,.58-.92,.55-1.43Z"/><path class="cls-39" d="M417.72,214.57c-.02-.23-.06-.46-.12-.68l-52.87,30.14c.14,.36,.23,.74,.24,1.13,.01,.43-.07,.97-.43,1.25-.01,.01-.03,.02-.04,.03,0,0-.01,0-.02,.01-.02,.01-.04,.02-.06,.04l52.74-30.48c.49-.28,.58-.92,.55-1.43Z"/><path class="cls-37" d="M358.23,245.33l-2.19,2.23c-.39,.39-.01,1.05,.52,.91l3.05-.76c-.17-.88-.7-1.8-1.38-2.38Z"/></g><g><g><path class="cls-29" d="M171.98,106.15v.57c0,1.67-2.95,3.03-6.6,3.03s-6.6-1.36-6.6-3.03v-.57h13.2Z"/><path class="cls-9" d="M158.78,106.15c0,1.67,2.95,3.03,6.6,3.03s6.6-1.36,6.6-3.03-2.95-3.03-6.6-3.03-6.6,1.36-6.6,3.03Z"/><path class="cls-21" d="M160.91,108.38v.57c.62,.26,1.34,.47,2.14,.61v-.57c-.8-.14-1.52-.35-2.14-.61Z"/></g><g><path class="cls-29" d="M171.66,103.49v2.38c0,1.59-2.81,2.88-6.28,2.88s-6.28-1.29-6.28-2.88v-2.38h12.56Z"/><path class="cls-9" d="M159.1,103.49c0,1.59,2.81,2.88,6.28,2.88s6.28-1.29,6.28-2.88-2.81-2.88-6.28-2.88-6.28,1.29-6.28,2.88Z"/><path class="cls-21" d="M161.13,105.61v2.38c.59,.25,1.28,.45,2.04,.58v-2.38c-.76-.13-1.45-.33-2.04-.58Z"/></g><g><path class="cls-29" d="M171.98,103.32v.57c0,1.67-2.95,3.03-6.6,3.03s-6.6-1.36-6.6-3.03v-.57h13.2Z"/><path class="cls-9" d="M158.78,103.32c0,1.67,2.95,3.03,6.6,3.03s6.6-1.36,6.6-3.03-2.95-3.03-6.6-3.03-6.6,1.36-6.6,3.03Z"/><path class="cls-21" d="M160.91,105.55v.57c.62,.26,1.34,.47,2.14,.61v-.57c-.8-.14-1.52-.35-2.14-.61Z"/></g><g><path class="cls-29" d="M171.66,100.66v2.38c0,1.59-2.81,2.88-6.28,2.88s-6.28-1.29-6.28-2.88v-2.38h12.56Z"/><path class="cls-9" d="M159.1,100.66c0,1.59,2.81,2.88,6.28,2.88s6.28-1.29,6.28-2.88-2.81-2.88-6.28-2.88-6.28,1.29-6.28,2.88Z"/><path class="cls-21" d="M161.13,102.78v2.38c.59,.25,1.28,.45,2.04,.58v-2.38c-.76-.13-1.45-.33-2.04-.58Z"/></g><path class="cls-13" d="M177.67,84c-.35-5.78-3.27-8.8-6.17-10.39-3.8-2.08-8.36-2.08-12.17,0-2.9,1.59-5.82,4.62-6.17,10.39-.14,2.38,.49,4.92,1.57,6.99,.75,1.43,1.83,2.65,3.03,3.68,1.22,1.06,2.15,2.3,2.5,3.96,.21,.98,.29,1.98,1.13,2.59,.87,.63,1.9,.92,2.94,1.03,.36,.04,.72,.05,1.08,.05s.72-.02,1.08-.05c1.04-.11,2.07-.4,2.94-1.03,.84-.62,.92-1.61,1.13-2.59,.36-1.65,1.28-2.9,2.5-3.96,1.2-1.04,2.28-2.25,3.03-3.68,1.08-2.07,1.71-4.61,1.57-6.99Z"/><g><path class="cls-7" d="M177.67,84c-.35-5.78-3.27-8.8-6.17-10.39-1.9-1.04-3.99-1.56-6.08-1.56,1.82,0,3.64,.52,5.3,1.56,2.53,1.59,5.07,4.62,5.37,10.39,.12,2.38-.42,4.92-1.37,6.99-.65,1.43-1.6,2.65-2.64,3.68-1.06,1.06-1.87,2.3-2.18,3.96-.19,.98-.25,1.98-.99,2.59-.75,.63-1.65,.92-2.56,1.03-.31,.04-.63,.05-.94,.05,.36,0,.72-.02,1.08-.05,1.04-.11,2.07-.4,2.94-1.03,.84-.62,.92-1.61,1.13-2.59,.36-1.65,1.28-2.9,2.5-3.96,1.2-1.04,2.28-2.25,3.03-3.68,1.08-2.07,1.71-4.61,1.57-6.99Z"/><path class="cls-7" d="M161.92,101.21c-.73-.62-.8-1.61-.99-2.59-.31-1.65-1.12-2.9-2.18-3.96-1.04-1.04-1.98-2.25-2.64-3.68-.94-2.07-1.49-4.61-1.37-6.99,.3-5.78,2.85-8.8,5.37-10.39,1.66-1.04,3.48-1.56,5.3-1.56-2.09,0-4.18,.52-6.08,1.56-2.9,1.59-5.82,4.62-6.17,10.39-.14,2.38,.49,4.92,1.57,6.99,.75,1.43,1.83,2.65,3.03,3.68,1.22,1.06,2.15,2.3,2.5,3.96,.21,.98,.29,1.98,1.13,2.59,.87,.63,1.9,.92,2.94,1.03,.36,.04,.72,.05,1.08,.05-.31,0-.63-.02-.94-.05-.91-.11-1.8-.4-2.56-1.03Z"/></g><path class="cls-7" d="M165.38,75.67c-1.54,0-2.78,5.49-2.78,12.26s1.24,12.26,2.78,12.26,2.78-5.49,2.78-12.26-1.24-12.26-2.78-12.26Z"/></g><g><path class="cls-31" d="M155.73,139.76c.03-.59,.22-1.15,.56-1.73,.32-.53,.75-1.01,1.17-1.46,.87-.94,1.89-1.73,1.15-3.18-.22-.43-.77-.74-1.06-1.13-.3-.4-.51-.85-.61-1.35-.17-.88,0-1.85,.48-2.61,.66-1.06,1.8-1.28,2.81-1.9,.57-.35,1.02-1.14,.97-1.83-.02-.36-.41-.76-.51-1.14-.1-.37-.15-.73-.09-1.12,.13-.81,.65-1.56,1.37-1.95,.6-.33,1.23-.28,1.87-.21,.76,0,1.55,.02,2.12-.41,.57-.43,.79-.9,1.52-1.1,1.2-.33,2.43,.19,3.14,1.2,.83,1.17,.81,2.68,.23,3.95-.28,.64-1.05,1.49-1.88,2.13-.91,.69-1.26,1.08-1.45,2.23-.09,.55-.11,1.63-.47,2.24-.22,.92-.71,1.76-1.53,2.37-.48,.35-1.05,.54-1.56,.84-.97,.57-1.02,1.68-.8,2.66,.06,.28,.51,.83,.32,1.53-.25,.9-1.51,.39-1.66,1.67-.19,1.59,1.98,2.65,1.2,4.46-.59,1.37-2.36,1.49-3.63,1.17-2.31-.58-4.01-3.08-3.64-5.34Z"/><polygon class="cls-31" points="179.5 184.82 175.22 185.6 175.22 187.16 178.87 188.26 180.39 186.54 179.5 184.82"/><polygon class="cls-31" points="188.94 181.42 184.77 182.64 184.93 184.2 188.67 184.9 190 183.03 188.94 181.42"/><path class="cls-11" d="M183.16,156.96l2.29-2.26c2.25,1.03,2.7,1.56,3.46,2.69,.76,1.13,.95,1.59,.4,2.67-.55,1.08-1.58,.44-1.58,.44-1.34-1.69-2.51-2.26-2.51-2.26,0,0-.23,.5,.39,1.3,.62,.8-.03,1.02-.03,1.02,0,0-.43,.04-1.12-1.01-.68-1.05-1.31-2.59-1.31-2.59Z"/><path class="cls-36" d="M173.8,132.61s2.07,1.46,3.31,13.41l9.04,8.62s-.76,2.05-3.03,2.75l-10.29-8.03,.97-16.75Z"/><path class="cls-31" d="M174.98,154.39s8.59,4.79,13.83,10.02c0,0,.19,5.16,.89,17.81,0,0-.55,1.6-5.2,.63l-1.96-15.66-14.19-7.61-1.23-4.73,7.86-.46Z"/><path class="cls-31" d="M167.11,156.57s12.61,8.63,13.96,10.71c0,0-.12,8.69-.26,17.93,0,0-2.52,1.84-6.05,.56,0,0-.32-13.42-.46-14.92,0,0-10.33-4.25-11.88-5.94-1.55-1.7-1.27-6.14-.54-7.58l5.22-.76Z"/><path class="cls-30" d="M164.05,133.68s-3.33,1.63-5.29,3.74c0,0-.2,8.14,2.27,23.32,0,0,8.72-1.55,13.94-6.35,0,0-.76-10.38-1.18-21.78,0,0-1.7-.14-3.68,0l-6.07,1.07Z"/><path class="cls-2" d="M164.27,130.75l-.22,2.93s.53,2.01,3.15,2.3c2.62,.29,3.61-1.67,3.61-1.67v-2.45l-6.54-1.11Z"/><g><path class="cls-6" d="M196.38,159.13l-11.09-6.45c-.24-.14-.63-.14-.87,0l-19.43,11.22c-.24,.14-.24,.37,0,.5l11.09,6.45c.24,.14,.63,.14,.87,0l19.43-11.22c.24-.14,.24-.37,0-.5Z"/><path class="cls-1" d="M164.98,164.41l11.09,6.45h0c.24,.14,.63,.14,.87,0l19.43-11.22c.12-.07,.18-.16,.18-.25v.57c0,.09-.06,.18-.18,.25l-19.43,11.22c-.24,.14-.63,.14-.87,0h0s0,0,0,0l-11.09-6.45c-.12-.07-.18-.16-.18-.25v-.57c0,.09,.06,.18,.18,.25Z"/><path class="cls-22" d="M173.23,159.87l4.46-2.58c.06-.04,.17-.04,.23,0l2.17,1.26c.06,.04,.06,.1,0,.13l-4.46,2.58c-.06,.04-.17,.04-.23,0l-2.17-1.26c-.06-.04-.06-.1,0-.13Z"/><g><polygon class="cls-22" points="185.69 156.38 186.59 155.87 187.48 156.38 186.58 156.9 185.69 156.38"/><polygon class="cls-22" points="185.56 157.49 184.67 156.97 185.57 156.46 186.46 156.97 185.56 157.49"/><polygon class="cls-22" points="184.54 158.08 183.65 157.56 184.55 157.05 185.44 157.56 184.54 158.08"/><polygon class="cls-22" points="183.52 158.67 182.63 158.15 183.53 157.64 184.42 158.15 183.52 158.67"/><polygon class="cls-22" points="182.5 159.26 181.61 158.74 182.51 158.23 183.4 158.74 182.5 159.26"/><polygon class="cls-22" points="181.48 159.85 180.59 159.33 181.49 158.82 182.38 159.33 181.48 159.85"/><polygon class="cls-22" points="180.46 160.44 179.57 159.92 180.47 159.41 181.36 159.92 180.46 160.44"/><polygon class="cls-22" points="179.44 161.03 178.55 160.51 179.45 160 180.34 160.51 179.44 161.03"/><polygon class="cls-22" points="178.42 161.62 177.53 161.1 178.43 160.59 179.32 161.1 178.42 161.62"/><polygon class="cls-22" points="177.4 162.21 176.51 161.69 177.41 161.18 178.3 161.69 177.4 162.21"/><polygon class="cls-22" points="176.38 162.8 175.49 162.28 176.39 161.77 177.28 162.28 176.38 162.8"/><polygon class="cls-22" points="175.36 163.39 174.47 162.87 175.36 162.36 176.26 162.87 175.36 163.39"/><polygon class="cls-22" points="174.34 163.98 173.45 163.46 174.34 162.95 175.24 163.46 174.34 163.98"/><polygon class="cls-22" points="173.32 164.57 172.43 164.05 173.32 163.54 174.22 164.05 173.32 164.57"/><polygon class="cls-22" points="172.3 165.16 171.41 164.64 172.3 164.13 173.2 164.64 172.3 165.16"/><polygon class="cls-22" points="171.28 164.72 172.18 165.23 171.28 165.75 170.39 165.23 171.28 164.72"/><polygon class="cls-22" points="187.95 157.84 187.05 158.35 186.16 157.84 188.08 156.73 188.97 157.25 187.95 157.84 187.95 157.84"/><polygon class="cls-22" points="186.93 158.43 186.03 158.94 185.14 158.43 186.04 157.91 186.93 158.43"/><polygon class="cls-22" points="185.91 159.02 185.01 159.53 184.12 159.02 185.01 158.5 185.91 159.02"/><polygon class="cls-22" points="184.89 159.61 183.99 160.12 183.1 159.61 183.99 159.09 184.89 159.61"/><polygon class="cls-22" points="183.87 160.2 182.97 160.71 182.08 160.2 182.97 159.68 183.87 160.2"/><polygon class="cls-22" points="182.85 160.79 181.95 161.3 181.06 160.79 181.95 160.27 182.85 160.79"/><polygon class="cls-22" points="181.83 161.38 180.93 161.89 180.04 161.38 180.93 160.86 181.83 161.38"/><polygon class="cls-22" points="180.81 161.97 179.91 162.48 179.02 161.97 179.91 161.45 180.81 161.97"/><polygon class="cls-22" points="179.79 162.56 178.89 163.07 178 162.56 178.89 162.04 179.79 162.56"/><polygon class="cls-22" points="178.77 163.15 177.87 163.66 176.98 163.15 177.87 162.63 178.77 163.15"/><polygon class="cls-22" points="177.75 163.74 176.85 164.25 175.96 163.74 176.85 163.22 177.75 163.74"/><polygon class="cls-22" points="176.72 164.33 175.83 164.84 174.93 164.33 175.83 163.81 176.72 164.33"/><polygon class="cls-22" points="173.91 164.92 174.81 164.4 175.7 164.92 174.81 165.43 173.91 164.92"/><polygon class="cls-22" points="172.89 165.51 173.79 164.99 174.68 165.51 173.79 166.02 172.89 165.51"/><polygon class="cls-22" points="173.66 166.1 172.77 166.61 171.87 166.1 172.77 165.58 173.66 166.1"/><polygon class="cls-22" points="189.08 158.49 188.18 159.01 187.29 158.5 189.2 157.39 190.1 157.9 189.08 158.49 189.08 158.49"/><polygon class="cls-22" points="188.06 159.08 187.16 159.6 186.27 159.09 187.16 158.57 188.06 159.08"/><polygon class="cls-22" points="187.04 159.67 186.14 160.19 185.25 159.68 186.14 159.16 187.04 159.67"/><polygon class="cls-22" points="186.02 160.26 185.12 160.78 184.23 160.27 185.12 159.75 186.02 160.26"/><polygon class="cls-22" points="185 160.85 184.1 161.37 183.21 160.86 184.1 160.34 185 160.85"/><polygon class="cls-22" points="183.98 161.44 183.08 161.96 182.19 161.45 183.08 160.93 183.98 161.44"/><polygon class="cls-22" points="182.96 162.03 182.06 162.55 181.16 162.04 182.06 161.52 182.96 162.03"/><polygon class="cls-22" points="181.93 162.62 181.04 163.14 180.14 162.63 181.04 162.11 181.93 162.62"/><polygon class="cls-22" points="180.91 163.21 180.02 163.73 179.12 163.22 180.02 162.7 180.91 163.21"/><polygon class="cls-22" points="179.89 163.8 179 164.32 178.1 163.81 179 163.29 179.89 163.8"/><polygon class="cls-22" points="177.08 164.4 177.98 163.88 178.87 164.39 177.98 164.91 177.08 164.4"/><polygon class="cls-22" points="175.04 165.58 175.94 165.06 176.83 165.57 175.94 166.09 175.04 165.58"/><polygon class="cls-22" points="174.02 166.17 174.92 165.65 175.81 166.16 174.92 166.68 174.02 166.17"/><polygon class="cls-22" points="174.79 166.75 173.9 167.27 173 166.76 173.9 166.24 174.79 166.75"/><polygon class="cls-22" points="190.21 159.15 189.31 159.67 188.42 159.15 190.33 158.04 191.23 158.56 190.21 159.15 190.21 159.15"/><polygon class="cls-22" points="189.19 159.74 188.29 160.26 187.4 159.74 188.29 159.22 189.19 159.74"/><polygon class="cls-22" points="188.16 160.33 187.27 160.85 186.37 160.33 187.27 159.81 188.16 160.33"/><polygon class="cls-22" points="185.35 160.92 186.25 160.4 187.14 160.92 186.25 161.44 185.35 160.92"/><polygon class="cls-22" points="184.33 161.51 185.23 160.99 186.12 161.51 185.23 162.02 184.33 161.51"/><polygon class="cls-22" points="183.31 162.1 184.21 161.58 185.1 162.1 184.21 162.61 183.31 162.1"/><polygon class="cls-22" points="182.29 162.69 183.19 162.17 184.08 162.69 183.19 163.2 182.29 162.69"/><polygon class="cls-22" points="181.27 163.28 182.17 162.76 183.06 163.28 182.17 163.79 181.27 163.28"/><polygon class="cls-22" points="180.25 163.87 181.15 163.35 182.04 163.87 181.15 164.38 180.25 163.87"/><polygon class="cls-22" points="179.23 164.46 180.13 163.94 181.02 164.46 180.13 164.97 179.23 164.46"/><polygon class="cls-22" points="178.21 165.05 179.11 164.53 180 165.05 179.11 165.56 178.21 165.05"/><polygon class="cls-22" points="176.17 166.23 177.2 165.64 176.06 164.99 176.96 164.47 177.85 164.98 177.85 164.98 178.98 165.64 177.06 166.74 176.17 166.23"/><polygon class="cls-22" points="175.15 166.82 176.05 166.3 176.94 166.82 176.04 167.33 175.15 166.82"/><polygon class="cls-22" points="175.92 167.41 175.02 167.92 174.13 167.41 175.03 166.89 175.92 167.41"/><polygon class="cls-22" points="190.56 159.22 191.46 158.7 192.35 159.21 191.46 159.73 190.56 159.22"/><polygon class="cls-22" points="191.33 159.8 190.44 160.32 189.54 159.81 190.44 159.29 191.33 159.8"/><polygon class="cls-22" points="188.52 160.4 189.42 159.88 190.31 160.39 189.42 160.91 188.52 160.4"/><polygon class="cls-22" points="187.5 160.99 188.4 160.47 189.29 160.98 188.4 161.5 187.5 160.99"/><polygon class="cls-22" points="186.48 161.58 187.38 161.06 188.27 161.57 187.38 162.09 186.48 161.58"/><polygon class="cls-22" points="185.46 162.17 186.36 161.65 187.25 162.16 186.36 162.68 185.46 162.17"/><polygon class="cls-22" points="184.44 162.76 185.34 162.24 186.23 162.75 185.34 163.27 184.44 162.76"/><polygon class="cls-22" points="183.42 163.35 184.32 162.83 185.21 163.34 184.31 163.86 183.42 163.35"/><polygon class="cls-22" points="182.4 163.94 183.3 163.42 184.19 163.93 183.29 164.45 182.4 163.94"/><polygon class="cls-22" points="181.38 164.53 182.28 164.01 183.17 164.52 182.27 165.04 181.38 164.53"/><polygon class="cls-22" points="180.36 165.12 181.26 164.6 182.15 165.11 181.25 165.63 180.36 165.12"/><polygon class="cls-22" points="179.34 165.71 180.24 165.19 181.13 165.7 180.23 166.22 179.34 165.71"/><polygon class="cls-22" points="178.32 166.3 179.22 165.78 180.11 166.29 179.21 166.81 178.32 166.3"/><polygon class="cls-22" points="177.3 166.89 178.2 166.37 179.09 166.88 178.19 167.4 177.3 166.89"/><polygon class="cls-22" points="176.28 167.48 177.18 166.96 178.07 167.47 177.17 167.99 176.28 167.48"/><polygon class="cls-22" points="177.05 168.06 176.15 168.58 175.26 168.07 176.16 167.55 177.05 168.06"/><polygon class="cls-22" points="192.59 159.35 193.48 159.87 192.46 160.46 192.46 160.46 191.57 160.98 190.67 160.46 192.59 159.35"/><polygon class="cls-22" points="190.55 160.53 191.44 161.05 190.42 161.64 190.42 161.64 189.52 162.16 188.63 161.64 190.55 160.53"/><polygon class="cls-22" points="183.53 164.59 183.53 164.59 183.71 164.49 184.55 164 184.55 164 184.91 163.79 185.57 163.41 185.57 163.41 186.11 163.1 186.59 162.82 186.59 162.82 187.31 162.41 188.51 161.71 189.4 162.23 188.38 162.82 188.38 162.82 188.2 162.92 187.36 163.41 187.36 163.41 187 163.62 186.34 164 186.34 164 185.8 164.31 185.32 164.59 185.32 164.59 184.6 165 184.3 165.18 184.3 165.18 183.4 165.7 182.51 165.18 183.53 164.59"/><polygon class="cls-22" points="182.39 165.25 183.28 165.77 182.38 166.29 181.49 165.77 182.39 165.25"/><polygon class="cls-22" points="181.37 165.84 182.26 166.36 181.36 166.88 180.47 166.36 181.37 165.84"/><polygon class="cls-22" points="180.35 166.43 181.24 166.95 180.34 167.47 179.45 166.95 180.35 166.43"/><polygon class="cls-22" points="179.33 167.02 180.22 167.54 179.32 168.06 178.43 167.54 179.33 167.02"/><polygon class="cls-22" points="178.31 167.61 179.2 168.13 178.3 168.65 177.41 168.13 178.31 167.61"/><polygon class="cls-22" points="178.18 168.72 177.28 169.24 176.39 168.72 177.29 168.2 178.18 168.72"/></g><g><path class="cls-40" d="M176.88,155.78l18.57-10.75c.12-.07,.26-.06,.37,0h0s0,0,0,0c0,0,0,0,0,0l.45,.26-.52,1.87v12.3c0,.45-.24,.86-.63,1.09l-17.89,10.35-.21,.56-.45-.26h0c-.2-.11-.35-.33-.35-.59v-13.7c0-.47,.25-.9,.65-1.13Z"/><path class="cls-9" d="M176.68,157.17v13.7c0,.53,.57,.85,1.02,.59l18.14-10.5c.39-.22,.63-.64,.63-1.09v-14.25c0-.29-.32-.47-.57-.33l-18.57,10.75c-.4,.23-.65,.66-.65,1.13Z"/></g></g><path class="cls-3" d="M169.72,158.04l-2.61,2.32c.96,2.5,1.5,3.03,2.67,3.94,1.17,.91,1.66,1.14,2.86,.62,1.2-.51,.59-1.68,.59-1.68-1.74-1.58-2.27-2.88-2.27-2.88,0,0,.56-.21,1.38,.52,.82,.73,1.11,.04,1.11,.04,0,0,.07-.46-1.01-1.28-1.09-.81-2.71-1.6-2.71-1.6Z"/><path class="cls-36" d="M156.93,150.01c.13-1.88,.4-6.04,.36-7.96-.07-3.42,1.47-4.64,1.47-4.64,3.49,1.02,3.43,4.94,3.57,5.16,.14,.22-.5,7.72-.5,7.72l8.74,7.93c-1.13,1.89-3.78,2.73-3.78,2.73l-8.65-7.3c-1.15-1.16-1.32-2.01-1.21-3.64Z"/><path class="cls-3" d="M162.31,130.22s.93,4.68,5.25,4.73c4.99,.06,5.35-6.44,4.74-9.49-.57-2.86-4-5.91-7.47-3.79-2.6,1.59-3.48,4.26-2.53,8.55Z"/><g><path class="cls-17" d="M180.42,183.66s-2.5,.76-2.32,1.5c.19,.73,.57,1.46-.21,1.63-.78,.17-2.86-1.04-2.95-.68-.08,.36-.11,2.45-.1,3.3s2.9,1.89,4.96,2.85c2.06,.96,5.68,2.71,7.05,1.18,1.37-1.53-.23-2.61-1.07-3.15-.84-.54-3.89-3.26-4.44-4.5-.55-1.24-.61-2.23-.92-2.13Z"/><path class="cls-17" d="M179.3,191.31c2.26,1.06,6.15,2.94,7.91,1.62-.09,.16-.2,.33-.36,.51-1.37,1.53-4.99-.22-7.05-1.18-2.06-.96-4.96-2-4.96-2.85,0-.05,0-.1,0-.15,.89,.48,3.13,1.43,4.47,2.05Z"/><path class="cls-17" d="M178.34,186.43c.08-.32-.12-.79-.24-1.27-.19-.73,2.32-1.5,2.32-1.5,.31-.1,.37,.89,.92,2.13,.55,1.24,3.6,3.96,4.44,4.5,.12,.07,.25,.16,.38,.26-.82,.67-1.87,.87-1.87,.87-3.54-.8-5.96-4.98-5.96-4.98h0Z"/></g><g><path class="cls-17" d="M189.52,180.3s-2.23,1.04-1.96,1.7c.27,.66,.72,1.29,.02,1.55-.7,.26-2.96-.72-2.99-.37-.03,.34,.22,2.29,.34,3.08,.11,.79,3.11,1.5,5.15,2.12,2.04,.63,5.63,1.78,6.71,.17,1.08-1.61-.55-2.4-1.41-2.79-.85-.39-4.05-2.52-4.72-3.6-.67-1.08-.86-2-1.13-1.86Z"/><path class="cls-17" d="M189.49,187.56c2.24,.69,6.1,1.92,7.56,.46-.06,.16-.14,.34-.27,.52-1.08,1.61-4.67,.46-6.71-.17-2.04-.63-5.04-1.34-5.15-2.12,0-.04-.01-.09-.02-.14,.89,.33,3.26,1.04,4.59,1.45Z"/><path class="cls-17" d="M187.95,183.14c.04-.31-.21-.72-.39-1.15-.27-.66,1.96-1.7,1.96-1.7,.28-.14,.46,.78,1.13,1.86,.67,1.08,3.87,3.2,4.72,3.6,.12,.05,.25,.12,.39,.19-.67,.73-1.62,1.05-1.62,1.05-3.39-.28-6.19-3.85-6.19-3.85h0Z"/></g><path class="cls-31" d="M171.7,121.46c-1.17-1.36-2.83-1.17-4.58-1.04-.82,.06-1.79,.11-2.56,.47-.29,.14-1.13,1.34-1.14,1.34-.06,0-.12,.03-.17,.07-.04-.03-.09-.05-.14-.05-3.95,.06-2.43,7.15-.11,9.92,.61-.71,2.53-5.89,2.8-6.35,.74,.64,5.71,2.42,6.17,2.4,.98-.05,1.98-4.13-.28-6.75Z"/></g><g><g><path class="cls-21" d="M333.34,88.23c.06-.07,.13-.13,.22-.18l17.32-10.67c.59-.36,1.33-.38,1.94-.05l41.5,22.45,.99-.03,.07,2.54c0,.28-.12,.56-.39,.72l-17.29,10.65c-.8,.49-1.8,.52-2.63,.07l-41.43-22.41c-.34-.19-.52-.52-.53-.86h0s-.07-2.56-.07-2.56l.3,.33Z"/><g><path class="cls-29" d="M333.58,88.78l41.43,22.41c.13,.07,.27,.13,.42,.18l.07,2.55c-.14-.05-.28-.11-.42-.18l-41.43-22.41c-.34-.19-.52-.52-.53-.86h0s-.07-2.55-.07-2.55c0,.34,.19,.68,.53,.87Z"/><polygon class="cls-23" points="333.04 87.9 333.04 87.91 333.04 87.9 333.04 87.9"/></g><path class="cls-9" d="M333.53,87.02l17.32-10.67c.59-.36,1.33-.38,1.94-.05l42.09,22.77c.55,.3,.57,1.08,.04,1.41l-17.29,10.65c-.8,.49-1.8,.52-2.63,.07l-41.43-22.41c-.69-.37-.72-1.35-.05-1.77Z"/><path class="cls-29" d="M377.63,111.12l.27-.17,.07,2.55-.27,.17c-.3,.19-.63,.31-.97,.36l-.07-2.55c.34-.05,.67-.17,.97-.36Z"/></g><g><g><g><polygon class="cls-32" points="339.86 68.55 340.44 88.78 351.92 81.7 351.34 61.5 339.86 68.55"/><polygon class="cls-9" points="351.34 61.5 339.86 68.55 336.94 66.97 348.41 59.92 351.34 61.5"/><polygon class="cls-30" points="339.86 68.55 340.44 88.78 337.52 87.19 336.94 66.97 339.86 68.55"/></g><polygon class="cls-36" points="348.41 59.92 348.8 60.13 337.71 66.95 339.85 68.11 350.94 61.28 351.34 61.5 339.86 68.55 336.94 66.97 348.41 59.92"/><polygon class="cls-27" points="339.36 70.67 339.73 83.64 337.85 82.63 337.48 69.65 339.36 70.67"/></g><g><g><polygon class="cls-13" points="343.88 70.73 344.46 90.95 355.93 83.87 355.35 63.67 343.88 70.73"/><polygon class="cls-9" points="355.35 63.67 343.88 70.73 340.95 69.14 352.42 62.09 355.35 63.67"/><polygon class="cls-10" points="343.88 70.73 344.46 90.95 341.53 89.37 340.95 69.14 343.88 70.73"/></g><polygon class="cls-8" points="352.42 62.09 352.82 62.3 341.72 69.12 343.87 70.28 354.95 63.46 355.35 63.67 343.88 70.73 340.95 69.14 352.42 62.09"/><polygon class="cls-27" points="343.38 72.84 343.75 85.82 341.87 84.8 341.5 71.83 343.38 72.84"/></g><g><g><polygon class="cls-19" points="348.06 72.97 348.64 93.2 360.11 86.12 359.53 65.92 348.06 72.97"/><polygon class="cls-9" points="359.53 65.92 348.06 72.97 345.13 71.39 356.61 64.34 359.53 65.92"/><polygon class="cls-24" points="348.06 72.97 348.64 93.2 345.71 91.62 345.13 71.39 348.06 72.97"/></g><polygon class="cls-20" points="356.61 64.34 357 64.55 345.9 71.37 348.05 72.53 359.14 65.71 359.53 65.92 348.06 72.97 345.13 71.39 356.61 64.34"/><polygon class="cls-27" points="347.56 75.09 347.93 88.06 346.05 87.05 345.68 74.07 347.56 75.09"/></g><g><g><polygon class="cls-35" points="352 75.11 352.58 95.34 364.05 88.26 363.48 68.06 352 75.11"/><polygon class="cls-9" points="363.48 68.06 352 75.11 349.07 73.53 360.55 66.48 363.48 68.06"/><polygon class="cls-34" points="352 75.11 352.58 95.34 349.65 93.75 349.07 73.53 352 75.11"/></g><polygon class="cls-18" points="360.55 66.48 360.94 66.69 349.85 73.51 351.99 74.67 363.08 67.84 363.48 68.06 352 75.11 349.07 73.53 360.55 66.48"/><polygon class="cls-27" points="351.5 77.23 351.87 90.2 349.99 89.19 349.62 76.21 351.5 77.23"/></g><g><g><polygon class="cls-15" points="356.09 77.32 356.67 97.55 368.14 90.47 367.57 70.27 356.09 77.32"/><polygon class="cls-9" points="367.57 70.27 356.09 77.32 353.16 75.74 364.64 68.69 367.57 70.27"/><polygon class="cls-17" points="356.09 77.32 356.67 97.55 353.74 95.96 353.16 75.74 356.09 77.32"/></g><polygon class="cls-14" points="364.64 68.69 365.03 68.9 353.93 75.72 356.08 76.88 367.17 70.06 367.57 70.27 356.09 77.32 353.16 75.74 364.64 68.69"/><polygon class="cls-27" points="355.59 79.44 355.96 92.41 354.08 91.4 353.71 78.42 355.59 79.44"/></g></g><g><g><g><polygon class="cls-32" points="359.83 79.43 360.41 99.66 371.88 92.58 371.3 72.38 359.83 79.43"/><polygon class="cls-9" points="371.3 72.38 359.83 79.43 356.9 77.85 368.37 70.79 371.3 72.38"/><polygon class="cls-30" points="359.83 79.43 360.41 99.66 357.48 98.07 356.9 77.85 359.83 79.43"/></g><polygon class="cls-36" points="368.37 70.79 368.76 71.01 357.67 77.83 359.82 78.99 370.9 72.16 371.3 72.38 359.83 79.43 356.9 77.85 368.37 70.79"/><polygon class="cls-27" points="359.32 81.55 359.7 94.52 357.82 93.5 357.45 80.53 359.32 81.55"/></g><g><g><polygon class="cls-13" points="363.84 81.61 364.42 101.83 375.9 94.75 375.32 74.55 363.84 81.61"/><polygon class="cls-9" points="375.32 74.55 363.84 81.61 360.92 80.02 372.39 72.97 375.32 74.55"/><polygon class="cls-10" points="363.84 81.61 364.42 101.83 361.5 100.25 360.92 80.02 363.84 81.61"/></g><polygon class="cls-8" points="372.39 72.97 372.78 73.18 361.69 80 363.83 81.16 374.92 74.34 375.32 74.55 363.84 81.61 360.92 80.02 372.39 72.97"/><polygon class="cls-27" points="363.34 83.72 363.71 96.7 361.83 95.68 361.46 82.7 363.34 83.72"/></g><g><g><polygon class="cls-19" points="368.03 83.85 368.61 104.08 380.08 97 379.5 76.8 368.03 83.85"/><polygon class="cls-9" points="379.5 76.8 368.03 83.85 365.1 82.27 376.57 75.22 379.5 76.8"/><polygon class="cls-24" points="368.03 83.85 368.61 104.08 365.68 102.49 365.1 82.27 368.03 83.85"/></g><polygon class="cls-20" points="376.57 75.22 376.96 75.43 365.87 82.25 368.01 83.41 379.1 76.58 379.5 76.8 368.03 83.85 365.1 82.27 376.57 75.22"/><polygon class="cls-27" points="367.52 85.97 367.89 98.94 366.02 97.93 365.64 84.95 367.52 85.97"/></g><g><g><polygon class="cls-35" points="371.97 85.99 372.55 106.22 384.02 99.13 383.44 78.94 371.97 85.99"/><polygon class="cls-9" points="383.44 78.94 371.97 85.99 369.04 84.41 380.51 77.35 383.44 78.94"/><polygon class="cls-34" points="371.97 85.99 372.55 106.22 369.62 104.63 369.04 84.41 371.97 85.99"/></g><polygon class="cls-18" points="380.51 77.35 380.9 77.57 369.81 84.39 371.96 85.55 383.04 78.72 383.44 78.94 371.97 85.99 369.04 84.41 380.51 77.35"/><polygon class="cls-27" points="371.46 88.1 371.84 101.08 369.96 100.06 369.58 87.09 371.46 88.1"/></g><g><g><polygon class="cls-15" points="376.06 88.2 376.64 108.43 388.11 101.35 387.53 81.15 376.06 88.2"/><polygon class="cls-9" points="387.53 81.15 376.06 88.2 373.13 86.62 384.6 79.57 387.53 81.15"/><polygon class="cls-17" points="376.06 88.2 376.64 108.43 373.71 106.84 373.13 86.62 376.06 88.2"/></g><polygon class="cls-14" points="384.6 79.57 384.99 79.78 373.9 86.6 376.05 87.76 387.13 80.93 387.53 81.15 376.06 88.2 373.13 86.62 384.6 79.57"/><polygon class="cls-27" points="375.55 90.32 375.92 103.29 374.05 102.28 373.67 89.3 375.55 90.32"/></g></g></g><g><g><path class="cls-21" d="M372.34,157.6c.06-.07,.13-.13,.22-.18l17.32-10.67c.59-.36,1.33-.38,1.94-.05l41.5,22.45,.99-.03,.07,2.54c0,.28-.12,.56-.39,.72l-17.29,10.65c-.8,.49-1.8,.52-2.63,.07l-41.43-22.41c-.34-.19-.52-.52-.53-.86h0s-.07-2.56-.07-2.56l.3,.33Z"/><g><path class="cls-29" d="M372.57,158.15l41.43,22.41c.13,.07,.27,.13,.42,.18l.07,2.55c-.14-.05-.28-.11-.42-.18l-41.43-22.41c-.34-.19-.52-.52-.53-.86h0s-.07-2.55-.07-2.55c0,.34,.19,.68,.53,.87Z"/><polygon class="cls-23" points="372.04 157.27 372.04 157.28 372.04 157.27 372.04 157.27"/></g><path class="cls-9" d="M372.52,156.38l17.32-10.67c.59-.36,1.33-.38,1.94-.05l42.09,22.77c.55,.3,.57,1.08,.04,1.41l-17.29,10.65c-.8,.49-1.8,.52-2.63,.07l-41.43-22.41c-.69-.37-.72-1.35-.05-1.77Z"/><path class="cls-29" d="M416.63,180.49l.27-.17,.07,2.55-.27,.17c-.3,.19-.63,.31-.97,.36l-.07-2.55c.34-.05,.67-.17,.97-.36Z"/></g><g><g><g><polygon class="cls-32" points="378.86 137.92 379.44 158.15 390.91 151.07 390.33 130.87 378.86 137.92"/><polygon class="cls-9" points="390.33 130.87 378.86 137.92 375.93 136.34 387.4 129.28 390.33 130.87"/><polygon class="cls-30" points="378.86 137.92 379.44 158.15 376.51 156.56 375.93 136.34 378.86 137.92"/></g><polygon class="cls-36" points="387.4 129.28 387.8 129.5 376.7 136.32 378.85 137.48 389.93 130.65 390.33 130.87 378.86 137.92 375.93 136.34 387.4 129.28"/><polygon class="cls-27" points="378.36 140.04 378.73 153.01 376.85 151.99 376.48 139.02 378.36 140.04"/></g><g><g><polygon class="cls-13" points="382.87 140.1 383.45 160.32 394.93 153.24 394.35 133.04 382.87 140.1"/><polygon class="cls-9" points="394.35 133.04 382.87 140.1 379.95 138.51 391.42 131.46 394.35 133.04"/><polygon class="cls-10" points="382.87 140.1 383.45 160.32 380.53 158.74 379.95 138.51 382.87 140.1"/></g><polygon class="cls-8" points="391.42 131.46 391.81 131.67 380.72 138.49 382.86 139.65 393.95 132.83 394.35 133.04 382.87 140.1 379.95 138.51 391.42 131.46"/><polygon class="cls-27" points="382.37 142.21 382.74 155.19 380.86 154.17 380.49 141.19 382.37 142.21"/></g><g><g><polygon class="cls-19" points="387.06 142.34 387.64 162.57 399.11 155.49 398.53 135.29 387.06 142.34"/><polygon class="cls-9" points="398.53 135.29 387.06 142.34 384.13 140.76 395.6 133.71 398.53 135.29"/><polygon class="cls-24" points="387.06 142.34 387.64 162.57 384.71 160.98 384.13 140.76 387.06 142.34"/></g><polygon class="cls-20" points="395.6 133.71 395.99 133.92 384.9 140.74 387.05 141.9 398.13 135.07 398.53 135.29 387.06 142.34 384.13 140.76 395.6 133.71"/><polygon class="cls-27" points="386.55 144.46 386.92 157.43 385.05 156.42 384.67 143.44 386.55 144.46"/></g><g><g><polygon class="cls-15" points="395.09 146.69 395.67 166.92 407.14 159.84 406.56 139.64 395.09 146.69"/><polygon class="cls-9" points="406.56 139.64 395.09 146.69 392.16 145.11 403.63 138.05 406.56 139.64"/><polygon class="cls-17" points="395.09 146.69 395.67 166.92 392.74 165.33 392.16 145.11 395.09 146.69"/></g><polygon class="cls-14" points="403.63 138.05 404.02 138.27 392.93 145.09 395.08 146.25 406.16 139.42 406.56 139.64 395.09 146.69 392.16 145.11 403.63 138.05"/><polygon class="cls-27" points="394.58 148.81 394.96 161.78 393.08 160.76 392.7 147.79 394.58 148.81"/></g></g><g><g><g><polygon class="cls-32" points="398.82 148.8 399.4 169.02 410.88 161.94 410.3 141.75 398.82 148.8"/><polygon class="cls-9" points="410.3 141.75 398.82 148.8 395.9 147.22 407.37 140.16 410.3 141.75"/><polygon class="cls-30" points="398.82 148.8 399.4 169.02 396.48 167.44 395.9 147.22 398.82 148.8"/></g><polygon class="cls-36" points="407.37 140.16 407.76 140.37 396.67 147.19 398.81 148.35 409.9 141.53 410.3 141.75 398.82 148.8 395.9 147.22 407.37 140.16"/><polygon class="cls-27" points="398.32 150.91 398.69 163.89 396.81 162.87 396.44 149.9 398.32 150.91"/></g><g><g><polygon class="cls-13" points="402.84 150.97 403.42 171.2 414.89 164.12 414.31 143.92 402.84 150.97"/><polygon class="cls-9" points="414.31 143.92 402.84 150.97 399.91 149.39 411.38 142.34 414.31 143.92"/><polygon class="cls-10" points="402.84 150.97 403.42 171.2 400.49 169.61 399.91 149.39 402.84 150.97"/></g><polygon class="cls-8" points="411.38 142.34 411.78 142.55 400.68 149.37 402.83 150.53 413.91 143.7 414.31 143.92 402.84 150.97 399.91 149.39 411.38 142.34"/><polygon class="cls-27" points="402.34 153.09 402.71 166.06 400.83 165.05 400.46 152.07 402.34 153.09"/></g><g><g><polygon class="cls-19" points="407.02 153.22 407.6 173.44 419.07 166.36 418.49 146.17 407.02 153.22"/><polygon class="cls-9" points="418.49 146.17 407.02 153.22 404.09 151.64 415.57 144.58 418.49 146.17"/><polygon class="cls-24" points="407.02 153.22 407.6 173.44 404.67 171.86 404.09 151.64 407.02 153.22"/></g><polygon class="cls-20" points="415.57 144.58 415.96 144.8 404.86 151.61 407.01 152.78 418.1 145.95 418.49 146.17 407.02 153.22 404.09 151.64 415.57 144.58"/><polygon class="cls-27" points="406.52 155.33 406.89 168.31 405.01 167.29 404.64 154.32 406.52 155.33"/></g><g><g><polygon class="cls-35" points="410.96 155.36 411.54 175.58 423.01 168.5 422.44 148.3 410.96 155.36"/><polygon class="cls-9" points="422.44 148.3 410.96 155.36 408.03 153.77 419.51 146.72 422.44 148.3"/><polygon class="cls-34" points="410.96 155.36 411.54 175.58 408.61 174 408.03 153.77 410.96 155.36"/></g><polygon class="cls-18" points="419.51 146.72 419.9 146.93 408.81 153.75 410.95 154.91 422.04 148.09 422.44 148.3 410.96 155.36 408.03 153.77 419.51 146.72"/><polygon class="cls-27" points="410.46 157.47 410.83 170.45 408.95 169.43 408.58 156.46 410.46 157.47"/></g></g></g><g><g><path class="cls-21" d="M372.3,137.42c.06-.07,.13-.13,.22-.18l17.32-10.67c.59-.36,1.33-.38,1.94-.05l41.5,22.45,.99-.03,.07,2.54c0,.28-.12,.56-.39,.72l-17.29,10.65c-.8,.49-1.8,.52-2.63,.07l-41.43-22.41c-.34-.19-.52-.52-.53-.86h0s-.07-2.56-.07-2.56l.3,.33Z"/><g><path class="cls-29" d="M372.54,137.97l41.43,22.41c.13,.07,.27,.13,.42,.18l.07,2.55c-.14-.05-.28-.11-.42-.18l-41.43-22.41c-.34-.19-.52-.52-.53-.86h0s-.07-2.55-.07-2.55c0,.34,.19,.68,.53,.87Z"/><polygon class="cls-23" points="372.01 137.09 372.01 137.1 372 137.09 372.01 137.09"/></g><path class="cls-9" d="M372.49,136.2l17.32-10.67c.59-.36,1.33-.38,1.94-.05l42.09,22.77c.55,.3,.57,1.08,.04,1.41l-17.29,10.65c-.8,.49-1.8,.52-2.63,.07l-41.43-22.41c-.69-.37-.72-1.35-.05-1.77Z"/><path class="cls-29" d="M416.59,160.31l.27-.17,.07,2.55-.27,.17c-.3,.19-.63,.31-.97,.36l-.07-2.55c.34-.05,.67-.17,.97-.36Z"/></g><g><g><g><polygon class="cls-32" points="378.83 117.74 379.41 137.97 390.88 130.88 390.3 110.69 378.83 117.74"/><polygon class="cls-9" points="390.3 110.69 378.83 117.74 375.9 116.16 387.37 109.1 390.3 110.69"/><polygon class="cls-30" points="378.83 117.74 379.41 137.97 376.48 136.38 375.9 116.16 378.83 117.74"/></g><polygon class="cls-36" points="387.37 109.1 387.76 109.32 376.67 116.14 378.81 117.3 389.9 110.47 390.3 110.69 378.83 117.74 375.9 116.16 387.37 109.1"/><polygon class="cls-27" points="378.32 119.85 378.69 132.83 376.81 131.81 376.44 118.84 378.32 119.85"/></g><g><g><polygon class="cls-13" points="382.84 119.92 383.42 140.14 394.89 133.06 394.31 112.86 382.84 119.92"/><polygon class="cls-9" points="394.31 112.86 382.84 119.92 379.91 118.33 391.39 111.28 394.31 112.86"/><polygon class="cls-10" points="382.84 119.92 383.42 140.14 380.49 138.56 379.91 118.33 382.84 119.92"/></g><polygon class="cls-8" points="391.39 111.28 391.78 111.49 380.68 118.31 382.83 119.47 393.92 112.65 394.31 112.86 382.84 119.92 379.91 118.33 391.39 111.28"/><polygon class="cls-27" points="382.34 122.03 382.71 135 380.83 133.99 380.46 121.01 382.34 122.03"/></g><g><g><polygon class="cls-19" points="387.02 122.16 387.6 142.39 399.08 135.31 398.5 115.11 387.02 122.16"/><polygon class="cls-9" points="398.5 115.11 387.02 122.16 384.1 120.58 395.57 113.52 398.5 115.11"/><polygon class="cls-24" points="387.02 122.16 387.6 142.39 384.67 140.8 384.1 120.58 387.02 122.16"/></g><polygon class="cls-20" points="395.57 113.52 395.96 113.74 384.87 120.56 387.01 121.72 398.1 114.89 398.5 115.11 387.02 122.16 384.1 120.58 395.57 113.52"/><polygon class="cls-27" points="386.52 124.28 386.89 137.25 385.01 136.23 384.64 123.26 386.52 124.28"/></g><g><g><polygon class="cls-35" points="390.96 124.3 391.54 144.52 403.02 137.44 402.44 117.25 390.96 124.3"/><polygon class="cls-9" points="402.44 117.25 390.96 124.3 388.04 122.72 399.51 115.66 402.44 117.25"/><polygon class="cls-34" points="390.96 124.3 391.54 144.52 388.62 142.94 388.04 122.72 390.96 124.3"/></g><polygon class="cls-18" points="399.51 115.66 399.9 115.87 388.81 122.69 390.95 123.85 402.04 117.03 402.44 117.25 390.96 124.3 388.04 122.72 399.51 115.66"/><polygon class="cls-27" points="390.46 126.41 390.83 139.39 388.95 138.37 388.58 125.4 390.46 126.41"/></g><g><g><polygon class="cls-15" points="395.05 126.51 395.63 146.74 407.11 139.66 406.53 119.46 395.05 126.51"/><polygon class="cls-9" points="406.53 119.46 395.05 126.51 392.13 124.93 403.6 117.87 406.53 119.46"/><polygon class="cls-17" points="395.05 126.51 395.63 146.74 392.71 145.15 392.13 124.93 395.05 126.51"/></g><polygon class="cls-14" points="403.6 117.87 403.99 118.09 392.9 124.91 395.04 126.07 406.13 119.24 406.53 119.46 395.05 126.51 392.13 124.93 403.6 117.87"/><polygon class="cls-27" points="394.55 128.63 394.92 141.6 393.04 140.58 392.67 127.61 394.55 128.63"/></g></g><g><g><g><polygon class="cls-32" points="395.86 131.83 396.44 152.05 407.92 144.97 407.34 124.77 395.86 131.83"/><polygon class="cls-9" points="407.34 124.77 395.86 131.83 392.94 130.24 404.41 123.19 407.34 124.77"/><polygon class="cls-30" points="395.86 131.83 396.44 152.05 393.52 150.47 392.94 130.24 395.86 131.83"/></g><polygon class="cls-36" points="404.41 123.19 404.8 123.4 393.71 130.22 395.85 131.38 406.94 124.56 407.34 124.77 395.86 131.83 392.94 130.24 404.41 123.19"/><polygon class="cls-27" points="395.36 133.94 395.73 146.92 393.85 145.9 393.48 132.92 395.36 133.94"/></g><g><g><polygon class="cls-13" points="402.81 130.79 403.39 151.02 414.86 143.94 414.28 123.74 402.81 130.79"/><polygon class="cls-9" points="414.28 123.74 402.81 130.79 399.88 129.21 411.35 122.16 414.28 123.74"/><polygon class="cls-10" points="402.81 130.79 403.39 151.02 400.46 149.43 399.88 129.21 402.81 130.79"/></g><polygon class="cls-8" points="411.35 122.16 411.74 122.37 400.65 129.19 402.79 130.35 413.88 123.52 414.28 123.74 402.81 130.79 399.88 129.21 411.35 122.16"/><polygon class="cls-27" points="402.3 132.91 402.67 145.88 400.79 144.87 400.42 131.89 402.3 132.91"/></g><g><g><polygon class="cls-35" points="410.93 135.18 411.51 155.4 422.98 148.32 422.4 128.12 410.93 135.18"/><polygon class="cls-9" points="422.4 128.12 410.93 135.18 408 133.59 419.47 126.54 422.4 128.12"/><polygon class="cls-34" points="410.93 135.18 411.51 155.4 408.58 153.82 408 133.59 410.93 135.18"/></g><polygon class="cls-18" points="419.47 126.54 419.87 126.75 408.77 133.57 410.92 134.73 422 127.91 422.4 128.12 410.93 135.18 408 133.59 419.47 126.54"/><polygon class="cls-27" points="410.43 137.29 410.8 150.27 408.92 149.25 408.55 136.28 410.43 137.29"/></g></g></g><g><g><path class="cls-21" d="M374.78,110.83c.06-.07,.13-.13,.22-.18l17.32-10.67c.59-.36,1.33-.38,1.94-.05l41.5,22.45,.99-.03,.07,2.54c0,.28-.12,.56-.39,.72l-17.29,10.65c-.8,.49-1.8,.52-2.63,.07l-41.43-22.41c-.34-.19-.52-.52-.53-.86h0s-.07-2.56-.07-2.56l.3,.33Z"/><g><path class="cls-29" d="M375.02,111.37l41.43,22.41c.13,.07,.27,.13,.42,.18l.07,2.55c-.14-.05-.28-.11-.42-.18l-41.43-22.41c-.34-.19-.52-.52-.53-.86h0s-.07-2.55-.07-2.55c0,.34,.19,.68,.53,.87Z"/><polygon class="cls-23" points="374.49 110.5 374.49 110.51 374.49 110.5 374.49 110.5"/></g><path class="cls-9" d="M374.97,109.61l17.32-10.67c.59-.36,1.33-.38,1.94-.05l42.09,22.77c.55,.3,.57,1.08,.04,1.41l-17.29,10.65c-.8,.49-1.8,.52-2.63,.07l-41.43-22.41c-.69-.37-.72-1.35-.05-1.77Z"/><path class="cls-29" d="M419.07,133.71l.27-.17,.07,2.55-.27,.17c-.3,.19-.63,.31-.97,.36l-.07-2.55c.34-.05,.67-.17,.97-.36Z"/></g><g><g><g><polygon class="cls-32" points="381.31 91.15 381.89 111.37 393.36 104.29 392.78 84.09 381.31 91.15"/><polygon class="cls-9" points="392.78 84.09 381.31 91.15 378.38 89.56 389.85 82.51 392.78 84.09"/><polygon class="cls-30" points="381.31 91.15 381.89 111.37 378.96 109.79 378.38 89.56 381.31 91.15"/></g><polygon class="cls-36" points="389.85 82.51 390.24 82.72 379.15 89.54 381.29 90.7 392.38 83.88 392.78 84.09 381.31 91.15 378.38 89.56 389.85 82.51"/><polygon class="cls-27" points="380.8 93.26 381.17 106.24 379.3 105.22 378.92 92.24 380.8 93.26"/></g><g><g><polygon class="cls-13" points="385.32 93.32 385.9 113.55 397.37 106.47 396.79 86.27 385.32 93.32"/><polygon class="cls-9" points="396.79 86.27 385.32 93.32 382.39 91.74 393.87 84.68 396.79 86.27"/><polygon class="cls-10" points="385.32 93.32 385.9 113.55 382.97 111.96 382.39 91.74 385.32 93.32"/></g><polygon class="cls-8" points="393.87 84.68 394.26 84.9 383.16 91.72 385.31 92.88 396.4 86.05 396.79 86.27 385.32 93.32 382.39 91.74 393.87 84.68"/><polygon class="cls-27" points="384.82 95.44 385.19 108.41 383.31 107.39 382.94 94.42 384.82 95.44"/></g><g><g><polygon class="cls-19" points="389.5 95.57 390.08 115.79 401.56 108.71 400.98 88.51 389.5 95.57"/><polygon class="cls-9" points="400.98 88.51 389.5 95.57 386.58 93.98 398.05 86.93 400.98 88.51"/><polygon class="cls-24" points="389.5 95.57 390.08 115.79 387.16 114.21 386.58 93.98 389.5 95.57"/></g><polygon class="cls-20" points="398.05 86.93 398.44 87.14 387.35 93.96 389.49 95.12 400.58 88.3 400.98 88.51 389.5 95.57 386.58 93.98 398.05 86.93"/><polygon class="cls-27" points="389 97.68 389.37 110.66 387.49 109.64 387.12 96.67 389 97.68"/></g><g><g><polygon class="cls-35" points="393.45 97.71 394.02 117.93 405.5 110.85 404.92 90.65 393.45 97.71"/><polygon class="cls-9" points="404.92 90.65 393.45 97.71 390.52 96.12 401.99 89.07 404.92 90.65"/><polygon class="cls-34" points="393.45 97.71 394.02 117.93 391.1 116.35 390.52 96.12 393.45 97.71"/></g><polygon class="cls-18" points="401.99 89.07 402.38 89.28 391.29 96.1 393.43 97.26 404.52 90.44 404.92 90.65 393.45 97.71 390.52 96.12 401.99 89.07"/><polygon class="cls-27" points="392.94 99.82 393.31 112.8 391.43 111.78 391.06 98.8 392.94 99.82"/></g><g><g><polygon class="cls-15" points="397.54 99.92 398.11 120.14 409.59 113.06 409.01 92.86 397.54 99.92"/><polygon class="cls-9" points="409.01 92.86 397.54 99.92 394.61 98.33 406.08 91.28 409.01 92.86"/><polygon class="cls-17" points="397.54 99.92 398.11 120.14 395.19 118.56 394.61 98.33 397.54 99.92"/></g><polygon class="cls-14" points="406.08 91.28 406.47 91.49 395.38 98.31 397.52 99.47 408.61 92.65 409.01 92.86 397.54 99.92 394.61 98.33 406.08 91.28"/><polygon class="cls-27" points="397.03 102.03 397.4 115.01 395.52 113.99 395.15 101.02 397.03 102.03"/></g></g><g><g><g><polygon class="cls-32" points="401.27 102.02 401.85 122.25 413.32 115.17 412.74 94.97 401.27 102.02"/><polygon class="cls-9" points="412.74 94.97 401.27 102.02 398.34 100.44 409.82 93.39 412.74 94.97"/><polygon class="cls-30" points="401.27 102.02 401.85 122.25 398.92 120.67 398.34 100.44 401.27 102.02"/></g><polygon class="cls-36" points="409.82 93.39 410.21 93.6 399.11 100.42 401.26 101.58 412.35 94.76 412.74 94.97 401.27 102.02 398.34 100.44 409.82 93.39"/><polygon class="cls-27" points="400.77 104.14 401.14 117.11 399.26 116.1 398.89 103.12 400.77 104.14"/></g><g><g><polygon class="cls-13" points="405.29 104.2 405.87 124.42 417.34 117.34 416.76 97.15 405.29 104.2"/><polygon class="cls-9" points="416.76 97.15 405.29 104.2 402.36 102.62 413.83 95.56 416.76 97.15"/><polygon class="cls-10" points="405.29 104.2 405.87 124.42 402.94 122.84 402.36 102.62 405.29 104.2"/></g><polygon class="cls-8" points="413.83 95.56 414.22 95.77 403.13 102.59 405.27 103.75 416.36 96.93 416.76 97.15 405.29 104.2 402.36 102.62 413.83 95.56"/><polygon class="cls-27" points="404.78 106.31 405.15 119.29 403.28 118.27 402.9 105.3 404.78 106.31"/></g><g><g><polygon class="cls-19" points="409.47 106.45 410.05 126.67 421.52 119.59 420.94 99.39 409.47 106.45"/><polygon class="cls-9" points="420.94 99.39 409.47 106.45 406.54 104.86 418.01 97.81 420.94 99.39"/><polygon class="cls-24" points="409.47 106.45 410.05 126.67 407.12 125.09 406.54 104.86 409.47 106.45"/></g><polygon class="cls-20" points="418.01 97.81 418.41 98.02 407.31 104.84 409.46 106 420.54 99.18 420.94 99.39 409.47 106.45 406.54 104.86 418.01 97.81"/><polygon class="cls-27" points="408.97 108.56 409.34 121.53 407.46 120.52 407.09 107.54 408.97 108.56"/></g><g><g><polygon class="cls-35" points="413.41 108.58 413.99 128.81 425.46 121.73 424.88 101.53 413.41 108.58"/><polygon class="cls-9" points="424.88 101.53 413.41 108.58 410.48 107 421.95 99.95 424.88 101.53"/><polygon class="cls-34" points="413.41 108.58 413.99 128.81 411.06 127.22 410.48 107 413.41 108.58"/></g><polygon class="cls-18" points="421.95 99.95 422.35 100.16 411.25 106.98 413.4 108.14 424.48 101.31 424.88 101.53 413.41 108.58 410.48 107 421.95 99.95"/><polygon class="cls-27" points="412.91 110.7 413.28 123.67 411.4 122.66 411.03 109.68 412.91 110.7"/></g><g><g><polygon class="cls-15" points="417.5 110.8 418.08 131.02 429.55 123.94 428.97 103.74 417.5 110.8"/><polygon class="cls-9" points="428.97 103.74 417.5 110.8 414.57 109.21 426.04 102.16 428.97 103.74"/><polygon class="cls-17" points="417.5 110.8 418.08 131.02 415.15 129.44 414.57 109.21 417.5 110.8"/></g><polygon class="cls-14" points="426.04 102.16 426.44 102.37 415.34 109.19 417.49 110.35 428.57 103.53 428.97 103.74 417.5 110.8 414.57 109.21 426.04 102.16"/><polygon class="cls-27" points="417 112.91 417.37 125.88 415.49 124.87 415.12 111.89 417 112.91"/></g></g></g><g><g><g><polygon class="cls-8" points="262.07 247.63 262.07 249.27 296.52 229.38 296.52 227.74 262.07 247.63"/><polygon class="cls-13" points="262.07 247.63 296.52 227.74 247.29 199.33 212.84 219.22 262.07 247.63"/><polygon class="cls-28" points="212.84 219.22 212.84 220.85 262.07 249.27 262.07 247.63 212.84 219.22"/></g><g><polygon class="cls-8" points="262.07 237.69 262.07 239.32 296.52 219.43 296.52 217.8 262.07 237.69"/><polygon class="cls-13" points="262.07 237.69 296.52 217.8 247.29 189.39 212.84 209.28 262.07 237.69"/><polygon class="cls-28" points="212.84 209.28 212.84 210.91 262.07 239.32 262.07 237.69 212.84 209.28"/></g><polygon class="cls-10" points="262.07 237.69 212.84 209.28 212.84 220.85 262.07 249.27 262.07 237.69"/><path class="cls-8" d="M262.07,237.69v11.43s-3.03-4.17,0-11.43Z"/><path class="cls-10" d="M212.84,209.28v11.57s-3.03-4.23,0-11.57Z"/><path class="cls-26" d="M262.07,239.32l33.58-19.39s-.82,2.84,0,8.31l-33.58,19.39v-8.31Z"/></g><polygon class="cls-8" points="260.9 231.62 287.11 216.49 249.66 194.88 223.46 210.01 260.9 231.62"/></g><g><g><polygon class="cls-15" points="282.46 223.56 282.46 225.19 316.91 205.3 316.91 203.67 282.46 223.56"/><polygon class="cls-15" points="282.46 223.56 316.91 203.67 267.69 175.25 233.23 195.14 282.46 223.56"/><polygon class="cls-28" points="233.23 195.14 233.23 196.78 282.46 225.19 282.46 223.56 233.23 195.14"/></g><g><polygon class="cls-14" points="282.46 213.61 282.46 215.24 316.91 195.35 316.91 193.72 282.46 213.61"/><polygon class="cls-15" points="282.46 213.61 316.91 193.72 267.69 165.31 233.23 185.2 282.46 213.61"/><polygon class="cls-28" points="233.23 185.2 233.23 186.83 282.46 215.24 282.46 213.61 233.23 185.2"/></g><polygon class="cls-17" points="282.46 213.61 233.23 185.2 233.23 196.78 282.46 225.19 282.46 213.61"/><path class="cls-15" d="M282.46,213.61v11.43s-3.03-4.17,0-11.43Z"/><path class="cls-17" d="M233.23,185.2v11.57s-2.29-4.23,0-11.57Z"/><path class="cls-29" d="M282.46,215.24l33.58-19.39s-.82,2.84,0,8.31l-33.58,19.39v-8.31Z"/></g><polygon class="cls-17" points="282.33 209.31 310.65 192.96 270.19 169.61 241.88 185.96 282.33 209.31"/><g><g><g><polygon class="cls-32" points="305.75 200.19 305.75 201.82 340.2 181.93 340.2 180.3 305.75 200.19"/><polygon class="cls-36" points="305.75 200.19 340.2 180.3 290.97 151.88 256.52 171.77 305.75 200.19"/><polygon class="cls-28" points="256.52 171.77 256.52 173.4 305.75 201.82 305.75 200.19 256.52 171.77"/></g><g><polygon class="cls-32" points="305.75 190.24 305.75 191.87 340.2 171.98 340.2 170.35 305.75 190.24"/><polygon class="cls-30" points="305.75 190.24 340.2 170.35 290.97 141.94 256.52 161.83 305.75 190.24"/><polygon class="cls-28" points="256.52 161.83 256.52 163.46 305.75 191.87 305.75 190.24 256.52 161.83"/></g><polygon class="cls-36" points="305.75 190.24 256.52 161.83 256.52 173.4 305.75 201.82 305.75 190.24"/><path class="cls-32" d="M305.75,190.24v11.43s-3.03-4.17,0-11.43Z"/><path class="cls-32" d="M256.52,161.83v11.57s-3.03-4.23,0-11.57Z"/><path class="cls-26" d="M305.75,191.87l33.58-19.39s-.82,2.84,0,8.31l-33.58,19.39v-8.31Z"/></g><path class="cls-6" d="M266.91,161.04c-.4,.23-.4,.6,0,.84l9.57,5.56c.4,.23,1.04,.23,1.44,0l23.39-13.49c.4-.23,.4-.6,0-.84l-9.57-5.56c-.4-.23-1.04-.23-1.44,0l-23.39,13.49Z"/></g></g></g></g></svg>